<mxfile host="app.diagrams.net" modified="2023-08-17T01:11:37.297Z" agent="Mozilla/5.0 (Macintosh; Intel Mac OS X 10_15_7) AppleWebKit/537.36 (KHTML, like Gecko) Chrome/115.0.0.0 Safari/537.36" etag="d1M_sNYLw5Knap7JFpeU" version="21.6.8" type="github" pages="2">
  <diagram name="Page-1" id="7_4JgFvm9BOAK6ZYZ9mK">
    <mxGraphModel dx="1533" dy="1047" grid="1" gridSize="10" guides="1" tooltips="1" connect="1" arrows="1" fold="1" page="1" pageScale="1" pageWidth="1100" pageHeight="850" math="0" shadow="0">
      <root>
        <mxCell id="0" />
        <mxCell id="1" parent="0" />
        <mxCell id="Tn-z02Jq1R33CDJyZg22-5" value="" style="group" vertex="1" connectable="0" parent="1">
          <mxGeometry x="510" y="260" width="170" height="150" as="geometry" />
        </mxCell>
        <mxCell id="Tn-z02Jq1R33CDJyZg22-1" value="&lt;b&gt;&lt;font style=&quot;font-size: 24px;&quot;&gt;電腦1&lt;/font&gt;&lt;/b&gt;" style="whiteSpace=wrap;html=1;fillColor=#f5f5f5;strokeColor=#666666;fontColor=#333333;verticalAlign=bottom;" vertex="1" parent="Tn-z02Jq1R33CDJyZg22-5">
          <mxGeometry width="170" height="150" as="geometry" />
        </mxCell>
        <mxCell id="Tn-z02Jq1R33CDJyZg22-2" value="人臉辨識門禁打卡模組" style="whiteSpace=wrap;html=1;fillColor=#fff2cc;strokeColor=#d6b656;" vertex="1" parent="Tn-z02Jq1R33CDJyZg22-5">
          <mxGeometry x="10" y="20" width="150" height="40" as="geometry" />
        </mxCell>
        <mxCell id="vmQSgBlwsRiA4PFkH24N-5" style="rounded=0;orthogonalLoop=1;jettySize=auto;html=1;exitX=0;exitY=0;exitDx=0;exitDy=0;" edge="1" parent="Tn-z02Jq1R33CDJyZg22-5" source="Tn-z02Jq1R33CDJyZg22-4">
          <mxGeometry relative="1" as="geometry">
            <mxPoint x="-160.00000000000023" y="69.38461538461524" as="targetPoint" />
          </mxGeometry>
        </mxCell>
        <mxCell id="vmQSgBlwsRiA4PFkH24N-6" value="&lt;font style=&quot;font-size: 13px;&quot;&gt;https&lt;/font&gt;" style="edgeLabel;html=1;align=center;verticalAlign=middle;resizable=0;points=[];" vertex="1" connectable="0" parent="vmQSgBlwsRiA4PFkH24N-5">
          <mxGeometry x="0.0146" y="-2" relative="1" as="geometry">
            <mxPoint as="offset" />
          </mxGeometry>
        </mxCell>
        <mxCell id="Tn-z02Jq1R33CDJyZg22-4" value="人臉辨識門註冊模組" style="whiteSpace=wrap;html=1;fillColor=#fff2cc;strokeColor=#d6b656;" vertex="1" parent="Tn-z02Jq1R33CDJyZg22-5">
          <mxGeometry x="10" y="70" width="150" height="40" as="geometry" />
        </mxCell>
        <mxCell id="Tn-z02Jq1R33CDJyZg22-7" value="" style="group;fillColor=#ffe6cc;strokeColor=#d79b00;" vertex="1" connectable="0" parent="1">
          <mxGeometry x="510" y="30" width="170" height="150" as="geometry" />
        </mxCell>
        <mxCell id="Tn-z02Jq1R33CDJyZg22-8" value="&lt;span style=&quot;font-size: 24px;&quot;&gt;&lt;b&gt;螢幕&lt;/b&gt;&lt;/span&gt;" style="whiteSpace=wrap;html=1;fillColor=#ffe6cc;strokeColor=#d79b00;verticalAlign=bottom;" vertex="1" parent="Tn-z02Jq1R33CDJyZg22-7">
          <mxGeometry width="170" height="150" as="geometry" />
        </mxCell>
        <mxCell id="Tn-z02Jq1R33CDJyZg22-9" value="人臉辨識門禁打卡介面" style="whiteSpace=wrap;html=1;fillColor=#fff2cc;strokeColor=#d6b656;" vertex="1" parent="Tn-z02Jq1R33CDJyZg22-7">
          <mxGeometry x="10" y="20" width="150" height="40" as="geometry" />
        </mxCell>
        <mxCell id="Tn-z02Jq1R33CDJyZg22-10" value="人臉辨識門註冊介面" style="whiteSpace=wrap;html=1;fillColor=#fff2cc;strokeColor=#d6b656;" vertex="1" parent="Tn-z02Jq1R33CDJyZg22-7">
          <mxGeometry x="10" y="70" width="150" height="40" as="geometry" />
        </mxCell>
        <mxCell id="Tn-z02Jq1R33CDJyZg22-12" value="&lt;font style=&quot;font-size: 22px;&quot;&gt;攝影機&lt;/font&gt;" style="ellipse;whiteSpace=wrap;html=1;aspect=fixed;fillColor=#ffe6cc;strokeColor=#d79b00;" vertex="1" parent="1">
          <mxGeometry x="720" y="110" width="90" height="90" as="geometry" />
        </mxCell>
        <mxCell id="Tn-z02Jq1R33CDJyZg22-27" style="edgeStyle=orthogonalEdgeStyle;rounded=0;orthogonalLoop=1;jettySize=auto;html=1;exitX=1;exitY=0.5;exitDx=0;exitDy=0;entryX=0;entryY=0.5;entryDx=0;entryDy=0;" edge="1" parent="1" source="Tn-z02Jq1R33CDJyZg22-15" target="Tn-z02Jq1R33CDJyZg22-16">
          <mxGeometry relative="1" as="geometry" />
        </mxCell>
        <mxCell id="Tn-z02Jq1R33CDJyZg22-28" value="&lt;font style=&quot;font-size: 13px;&quot;&gt;PWM&lt;/font&gt;" style="edgeLabel;html=1;align=center;verticalAlign=middle;resizable=0;points=[];" vertex="1" connectable="0" parent="Tn-z02Jq1R33CDJyZg22-27">
          <mxGeometry x="0.0052" y="-2" relative="1" as="geometry">
            <mxPoint x="1" as="offset" />
          </mxGeometry>
        </mxCell>
        <mxCell id="Tn-z02Jq1R33CDJyZg22-15" value="&lt;font style=&quot;font-size: 21px;&quot;&gt;Raspberry Pi Pico&lt;/font&gt;" style="whiteSpace=wrap;html=1;fillColor=#d5e8d4;strokeColor=#82b366;" vertex="1" parent="1">
          <mxGeometry x="500" y="480" width="190" height="70" as="geometry" />
        </mxCell>
        <mxCell id="Tn-z02Jq1R33CDJyZg22-29" style="edgeStyle=orthogonalEdgeStyle;rounded=0;orthogonalLoop=1;jettySize=auto;html=1;exitX=0.5;exitY=0;exitDx=0;exitDy=0;entryX=0.5;entryY=1;entryDx=0;entryDy=0;" edge="1" parent="1" source="Tn-z02Jq1R33CDJyZg22-16" target="Tn-z02Jq1R33CDJyZg22-17">
          <mxGeometry relative="1" as="geometry" />
        </mxCell>
        <mxCell id="Tn-z02Jq1R33CDJyZg22-16" value="&lt;span style=&quot;font-size: 21px;&quot;&gt;伺服馬達&lt;/span&gt;" style="whiteSpace=wrap;html=1;fillColor=#dae8fc;strokeColor=#6c8ebf;" vertex="1" parent="1">
          <mxGeometry x="760" y="490" width="160" height="50" as="geometry" />
        </mxCell>
        <mxCell id="Tn-z02Jq1R33CDJyZg22-17" value="&lt;font style=&quot;font-size: 21px;&quot;&gt;門&lt;/font&gt;" style="whiteSpace=wrap;html=1;fillColor=#ffe6cc;strokeColor=#d79b00;" vertex="1" parent="1">
          <mxGeometry x="800" y="410" width="75" height="60" as="geometry" />
        </mxCell>
        <mxCell id="Tn-z02Jq1R33CDJyZg22-19" value="" style="edgeStyle=orthogonalEdgeStyle;rounded=0;orthogonalLoop=1;jettySize=auto;html=1;" edge="1" parent="1" source="Tn-z02Jq1R33CDJyZg22-1" target="Tn-z02Jq1R33CDJyZg22-15">
          <mxGeometry relative="1" as="geometry" />
        </mxCell>
        <mxCell id="Tn-z02Jq1R33CDJyZg22-20" value="&lt;font style=&quot;font-size: 13px;&quot;&gt;MQTT&lt;/font&gt;" style="edgeLabel;html=1;align=center;verticalAlign=middle;resizable=0;points=[];" vertex="1" connectable="0" parent="Tn-z02Jq1R33CDJyZg22-19">
          <mxGeometry x="-0.187" y="-1" relative="1" as="geometry">
            <mxPoint y="-1" as="offset" />
          </mxGeometry>
        </mxCell>
        <mxCell id="Tn-z02Jq1R33CDJyZg22-22" value="" style="edgeStyle=orthogonalEdgeStyle;rounded=0;orthogonalLoop=1;jettySize=auto;html=1;entryX=0.5;entryY=1;entryDx=0;entryDy=0;" edge="1" parent="1" source="Tn-z02Jq1R33CDJyZg22-1" target="Tn-z02Jq1R33CDJyZg22-8">
          <mxGeometry relative="1" as="geometry">
            <mxPoint x="595" y="240" as="targetPoint" />
          </mxGeometry>
        </mxCell>
        <mxCell id="Tn-z02Jq1R33CDJyZg22-26" value="HDMI" style="edgeLabel;html=1;align=center;verticalAlign=middle;resizable=0;points=[];" vertex="1" connectable="0" parent="Tn-z02Jq1R33CDJyZg22-22">
          <mxGeometry x="0.0841" y="4" relative="1" as="geometry">
            <mxPoint as="offset" />
          </mxGeometry>
        </mxCell>
        <mxCell id="Tn-z02Jq1R33CDJyZg22-24" style="rounded=0;orthogonalLoop=1;jettySize=auto;html=1;exitX=0.5;exitY=0;exitDx=0;exitDy=0;entryX=0.5;entryY=1;entryDx=0;entryDy=0;" edge="1" parent="1" source="Tn-z02Jq1R33CDJyZg22-1" target="Tn-z02Jq1R33CDJyZg22-12">
          <mxGeometry relative="1" as="geometry" />
        </mxCell>
        <mxCell id="Tn-z02Jq1R33CDJyZg22-25" value="&lt;font style=&quot;font-size: 13px;&quot;&gt;USB&lt;/font&gt;" style="edgeLabel;html=1;align=center;verticalAlign=middle;resizable=0;points=[];" vertex="1" connectable="0" parent="Tn-z02Jq1R33CDJyZg22-24">
          <mxGeometry x="0.1203" y="-1" relative="1" as="geometry">
            <mxPoint x="-1" as="offset" />
          </mxGeometry>
        </mxCell>
        <mxCell id="vmQSgBlwsRiA4PFkH24N-1" value="" style="group" vertex="1" connectable="0" parent="1">
          <mxGeometry x="180" y="260" width="170" height="150" as="geometry" />
        </mxCell>
        <mxCell id="vmQSgBlwsRiA4PFkH24N-2" value="&lt;b&gt;&lt;font style=&quot;font-size: 24px;&quot;&gt;電腦2&lt;/font&gt;&lt;/b&gt;" style="whiteSpace=wrap;html=1;fillColor=#f5f5f5;strokeColor=#666666;fontColor=#333333;verticalAlign=bottom;container=1;" vertex="1" parent="vmQSgBlwsRiA4PFkH24N-1">
          <mxGeometry width="170" height="150" as="geometry" />
        </mxCell>
        <mxCell id="vmQSgBlwsRiA4PFkH24N-3" value="員工考勤系統網頁" style="whiteSpace=wrap;html=1;fillColor=#fff2cc;strokeColor=#d6b656;" vertex="1" parent="vmQSgBlwsRiA4PFkH24N-2">
          <mxGeometry x="10" y="50" width="150" height="40" as="geometry" />
        </mxCell>
      </root>
    </mxGraphModel>
  </diagram>
  <diagram id="s-r5dYsdA5ZeynaOEiWD" name="Page-2">
    <mxGraphModel dx="843" dy="576" grid="1" gridSize="10" guides="1" tooltips="1" connect="1" arrows="1" fold="1" page="1" pageScale="1" pageWidth="1100" pageHeight="850" math="0" shadow="0">
      <root>
        <mxCell id="0" />
        <mxCell id="1" parent="0" />
        <mxCell id="YBtLewotydth7Z-0G7D7-1" value="" style="group" vertex="1" connectable="0" parent="1">
          <mxGeometry x="510" y="260" width="170" height="150" as="geometry" />
        </mxCell>
        <mxCell id="YBtLewotydth7Z-0G7D7-2" value="&lt;b&gt;&lt;font style=&quot;font-size: 24px;&quot;&gt;電腦&lt;/font&gt;&lt;/b&gt;" style="whiteSpace=wrap;html=1;fillColor=#f5f5f5;strokeColor=#666666;fontColor=#333333;verticalAlign=bottom;" vertex="1" parent="YBtLewotydth7Z-0G7D7-1">
          <mxGeometry width="170" height="150" as="geometry" />
        </mxCell>
        <mxCell id="YBtLewotydth7Z-0G7D7-3" value="人臉辨識門禁打卡模組" style="whiteSpace=wrap;html=1;fillColor=#fff2cc;strokeColor=#d6b656;" vertex="1" parent="YBtLewotydth7Z-0G7D7-1">
          <mxGeometry x="10" y="20" width="150" height="40" as="geometry" />
        </mxCell>
        <mxCell id="YBtLewotydth7Z-0G7D7-4" value="人臉辨識門註冊模組" style="whiteSpace=wrap;html=1;fillColor=#fff2cc;strokeColor=#d6b656;" vertex="1" parent="YBtLewotydth7Z-0G7D7-1">
          <mxGeometry x="10" y="70" width="150" height="40" as="geometry" />
        </mxCell>
      </root>
    </mxGraphModel>
  </diagram>
</mxfile>
